<svg width="108" height="37" viewBox="0 0 108 37" fill="none" xmlns="http://www.w3.org/2000/svg">
<path d="M4 0.5H104C105.933 0.5 107.5 2.067 107.5 4V22.2617C107.5 23.8105 106.485 25.162 105.026 25.6084L104.729 25.6855L58.0615 35.624C55.5512 36.1586 52.9617 36.1914 50.4414 35.7236L49.9385 35.624L3.27051 25.6855C1.65492 25.3413 0.5 23.9136 0.5 22.2617V4C0.5 2.067 2.067 0.5 4 0.5Z" fill="#3B4B5B" stroke="black"/>
<path d="M1 4C1 2.34315 2.34315 1 4 1H104C105.657 1 107 2.34315 107 4V19.2748C107 21.1571 105.688 22.7847 103.848 23.1839L58.2409 33.0798C55.4462 33.6862 52.5538 33.6862 49.7591 33.0798L4.15182 23.1839C2.31233 22.7848 1 21.1571 1 19.2748V4Z" fill="#B4C7D9"/>
<path d="M4 1.5H104C105.381 1.5 106.5 2.61929 106.5 4V19.2744C106.5 20.8186 105.491 22.167 104.038 22.6172L103.742 22.6953L58.1348 32.5908C55.5802 33.1451 52.942 33.1803 50.377 32.6953L49.8652 32.5908L4.25781 22.6953C2.64827 22.3461 1.5 20.9214 1.5 19.2744V4L1.5127 3.74414C1.64082 2.48361 2.70566 1.5 4 1.5Z" stroke="#C4C4C4" stroke-opacity="0.7" style="mix-blend-mode:hard-light"/>
<path style="mix-blend-mode:hard-light" fill-rule="evenodd" clip-rule="evenodd" d="M107 8.09111C94.5399 11.1014 76.3098 13 56 13C33.3938 13 13.364 10.6478 1 7.02848V4C1 2.34315 2.34315 1 4 1H104C105.657 1 107 2.34315 107 4V8.09111Z" fill="#F5F5F5" fill-opacity="0.2"/>
</svg>
